<svg width="451" height="110" viewBox="0 0 451 110" fill="none" xmlns="http://www.w3.org/2000/svg">
<path d="M26.8996 6.10402C25.7308 4.9124 24.3214 3.97982 22.7916 3.32357C21.2447 2.68458 19.6118 2.35645 17.9445 2.35645C16.2773 2.35645 14.6272 2.68458 13.0974 3.32357C11.5505 3.96255 10.1583 4.9124 8.98945 6.10402L1.77039 13.3919C0.618777 14.5145 0 16.0342 0 17.623C0 19.2119 0.618777 20.7316 1.73601 21.8542L30.8357 51.213C31.3342 51.7138 31.7467 52.3183 32.0045 52.9918C32.2795 53.648 32.417 54.3734 32.417 55.0814C32.417 55.8068 32.2795 56.5148 32.0045 57.1711C31.7295 57.8274 31.3342 58.4318 30.8357 58.9499L6.60028 83.4213C4.22831 85.8219 2.88762 89.0686 2.88762 92.4708C2.88762 95.8557 4.22831 99.1197 6.60028 101.52L9.00664 103.955C11.3786 106.356 14.61 107.703 17.9789 107.703C21.3478 107.703 24.562 106.356 26.9512 103.955L51.1866 79.4838C51.685 78.983 52.2866 78.5685 52.9398 78.2922C53.5929 78.0159 54.2977 77.8777 55.0196 77.8777C55.7243 77.8777 56.429 78.0159 57.0993 78.2922C57.7525 78.5685 58.3541 78.9657 58.8525 79.4838L87.0241 107.927C88.6741 109.274 90.7367 110.017 92.8509 110C94.9822 109.982 97.0276 109.24 98.6605 107.876L135.186 71.0216C135.375 70.8661 135.564 70.7107 135.736 70.5207L145.859 60.297C146.788 59.3644 147.441 58.2073 147.767 56.9293C148.094 55.6513 148.077 54.3216 147.716 53.0609C147.372 51.8692 146.753 50.7985 145.877 49.935L135.753 39.7285C135.65 39.6249 135.529 39.5385 135.426 39.4349L98.6089 2.28737C97.3198 0.974862 95.5838 0.214986 93.7619 0.163177C92.5759 -0.0958717 91.3555 -0.044062 90.2039 0.301336C89.0523 0.646734 88.0038 1.26845 87.1444 2.13194L68.5123 20.9216C65.831 23.6157 65.8482 27.985 68.5295 30.6791L79.2378 41.4382C81.9192 44.1323 86.285 44.1323 88.9663 41.421C89.4648 40.9201 90.0664 40.5057 90.7195 40.2293C91.3727 39.953 92.0774 39.8149 92.7993 39.8149C93.504 39.8149 94.2088 39.953 94.8791 40.2293C95.5322 40.5057 96.1338 40.9029 96.6323 41.421L106.378 51.2648C107.392 52.2837 107.959 53.6826 107.959 55.1332C107.959 56.5839 107.392 57.9655 106.378 59.0017L96.6839 68.7937C96.1854 69.2946 95.5838 69.709 94.9307 69.9854C94.2775 70.2617 93.5728 70.3998 92.8509 70.3998C92.129 70.3998 91.4414 70.2617 90.7711 69.9854C90.1179 69.709 89.5164 69.3118 89.0179 68.7937" fill="white"/>
<path d="M169.872 71.5C169.584 71.5 169.344 71.404 169.152 71.212C168.96 71.02 168.864 70.78 168.864 70.492C168.864 70.396 168.88 70.3 168.912 70.204C168.944 70.108 168.976 70.012 169.008 69.916L179.76 54.364L169.68 39.484C169.584 39.292 169.536 39.1 169.536 38.908C169.536 38.62 169.632 38.38 169.824 38.188C170.016 37.996 170.24 37.9 170.496 37.9H175.44C175.824 37.9 176.128 37.996 176.352 38.188C176.576 38.38 176.768 38.588 176.928 38.812L183.984 49.18L191.088 38.812C191.216 38.588 191.392 38.38 191.616 38.188C191.872 37.996 192.192 37.9 192.576 37.9H197.232C197.52 37.9 197.76 37.996 197.952 38.188C198.144 38.38 198.24 38.62 198.24 38.908C198.24 39.1 198.176 39.292 198.048 39.484L188.016 54.364L198.768 69.916C198.832 70.012 198.88 70.108 198.912 70.204C198.944 70.3 198.96 70.396 198.96 70.492C198.96 70.78 198.848 71.02 198.624 71.212C198.432 71.404 198.208 71.5 197.952 71.5H192.864C192.48 71.5 192.176 71.404 191.952 71.212C191.728 71.02 191.552 70.828 191.424 70.636L183.744 59.788L176.208 70.636C176.08 70.828 175.904 71.02 175.68 71.212C175.456 71.404 175.136 71.5 174.72 71.5H169.872ZM204.677 71.5C204.357 71.5 204.085 71.388 203.861 71.164C203.637 70.94 203.525 70.668 203.525 70.348V39.052C203.525 38.732 203.637 38.46 203.861 38.236C204.085 38.012 204.357 37.9 204.677 37.9H209.141C209.461 37.9 209.733 38.012 209.957 38.236C210.181 38.46 210.293 38.732 210.293 39.052V65.788H225.509C225.861 65.788 226.149 65.9 226.373 66.124C226.597 66.348 226.709 66.636 226.709 66.988V70.348C226.709 70.668 226.597 70.94 226.373 71.164C226.149 71.388 225.861 71.5 225.509 71.5H204.677ZM252.783 71.98C249.807 71.98 247.311 71.548 245.295 70.684C243.311 69.788 241.791 68.636 240.735 67.228C239.711 65.788 239.167 64.284 239.103 62.716C239.103 62.428 239.199 62.188 239.391 61.996C239.583 61.804 239.823 61.708 240.111 61.708H244.383C244.799 61.708 245.103 61.804 245.295 61.996C245.519 62.156 245.711 62.364 245.871 62.62C246.063 63.228 246.431 63.836 246.975 64.444C247.519 65.02 248.255 65.5 249.183 65.884C250.143 66.268 251.343 66.46 252.783 66.46C255.087 66.46 256.799 66.076 257.919 65.308C259.071 64.54 259.647 63.5 259.647 62.188C259.647 61.26 259.343 60.524 258.735 59.98C258.127 59.404 257.183 58.892 255.903 58.444C254.655 57.964 252.991 57.468 250.911 56.956C248.511 56.38 246.495 55.692 244.863 54.892C243.263 54.06 242.047 53.02 241.215 51.772C240.415 50.524 240.015 48.94 240.015 47.02C240.015 45.164 240.511 43.516 241.503 42.076C242.527 40.636 243.967 39.5 245.823 38.668C247.711 37.836 249.951 37.42 252.543 37.42C254.623 37.42 256.463 37.708 258.063 38.284C259.663 38.828 260.991 39.564 262.047 40.492C263.103 41.388 263.903 42.364 264.447 43.42C265.023 44.444 265.327 45.452 265.359 46.444C265.359 46.7 265.263 46.94 265.071 47.164C264.911 47.356 264.671 47.452 264.351 47.452H259.887C259.631 47.452 259.375 47.388 259.119 47.26C258.863 47.132 258.655 46.892 258.495 46.54C258.303 45.548 257.679 44.7 256.623 43.996C255.567 43.292 254.207 42.94 252.543 42.94C250.815 42.94 249.423 43.26 248.367 43.9C247.311 44.54 246.783 45.532 246.783 46.876C246.783 47.772 247.039 48.524 247.551 49.132C248.095 49.708 248.943 50.22 250.095 50.668C251.279 51.116 252.831 51.596 254.751 52.108C257.471 52.716 259.695 53.42 261.423 54.22C263.151 55.02 264.415 56.044 265.215 57.292C266.015 58.508 266.415 60.06 266.415 61.948C266.415 64.06 265.839 65.868 264.687 67.372C263.567 68.844 261.983 69.98 259.935 70.78C257.887 71.58 255.503 71.98 252.783 71.98ZM282.38 71.98C279.82 71.98 277.66 71.532 275.9 70.636C274.172 69.74 272.844 68.476 271.916 66.844C271.02 65.212 270.508 63.308 270.38 61.132C270.348 60.556 270.332 59.852 270.332 59.02C270.332 58.188 270.348 57.484 270.38 56.908C270.508 54.7 271.036 52.796 271.964 51.196C272.924 49.564 274.268 48.3 275.996 47.404C277.756 46.508 279.884 46.06 282.38 46.06C284.876 46.06 286.988 46.508 288.716 47.404C290.476 48.3 291.82 49.564 292.748 51.196C293.708 52.796 294.252 54.7 294.38 56.908C294.412 57.484 294.428 58.188 294.428 59.02C294.428 59.852 294.412 60.556 294.38 61.132C294.252 63.308 293.724 65.212 292.796 66.844C291.9 68.476 290.572 69.74 288.812 70.636C287.084 71.532 284.94 71.98 282.38 71.98ZM282.38 67.228C284.076 67.228 285.388 66.7 286.316 65.644C287.244 64.556 287.756 62.972 287.852 60.892C287.884 60.412 287.9 59.788 287.9 59.02C287.9 58.252 287.884 57.628 287.852 57.148C287.756 55.1 287.244 53.532 286.316 52.444C285.388 51.356 284.076 50.812 282.38 50.812C280.684 50.812 279.372 51.356 278.444 52.444C277.516 53.532 277.004 55.1 276.908 57.148C276.876 57.628 276.86 58.252 276.86 59.02C276.86 59.788 276.876 60.412 276.908 60.892C277.004 62.972 277.516 64.556 278.444 65.644C279.372 66.7 280.684 67.228 282.38 67.228ZM303.305 71.5C302.985 71.5 302.713 71.388 302.489 71.164C302.265 70.94 302.153 70.668 302.153 70.348V51.628H298.265C297.945 51.628 297.673 51.516 297.449 51.292C297.225 51.068 297.113 50.796 297.113 50.476V47.692C297.113 47.372 297.225 47.1 297.449 46.876C297.673 46.652 297.945 46.54 298.265 46.54H302.153V44.572C302.153 42.652 302.505 41.068 303.209 39.82C303.913 38.54 304.953 37.58 306.329 36.94C307.705 36.3 309.449 35.98 311.561 35.98H314.825C315.177 35.98 315.449 36.092 315.641 36.316C315.865 36.54 315.977 36.812 315.977 37.132V39.916C315.977 40.236 315.865 40.508 315.641 40.732C315.449 40.956 315.177 41.068 314.825 41.068H311.753C310.473 41.068 309.593 41.388 309.113 42.028C308.633 42.668 308.393 43.596 308.393 44.812V46.54H314.345C314.697 46.54 314.969 46.652 315.161 46.876C315.385 47.1 315.497 47.372 315.497 47.692V50.476C315.497 50.796 315.385 51.068 315.161 51.292C314.969 51.516 314.697 51.628 314.345 51.628H308.393V70.348C308.393 70.668 308.281 70.94 308.057 71.164C307.833 71.388 307.561 71.5 307.241 71.5H303.305ZM330.62 71.5C328.7 71.5 327.084 71.164 325.772 70.492C324.46 69.82 323.484 68.828 322.844 67.516C322.204 66.172 321.884 64.508 321.884 62.524V51.628H318.092C317.772 51.628 317.5 51.516 317.276 51.292C317.052 51.068 316.94 50.796 316.94 50.476V47.692C316.94 47.372 317.052 47.1 317.276 46.876C317.5 46.652 317.772 46.54 318.092 46.54H321.884V38.572C321.884 38.252 321.98 37.98 322.172 37.756C322.396 37.532 322.684 37.42 323.036 37.42H326.924C327.244 37.42 327.516 37.532 327.74 37.756C327.964 37.98 328.076 38.252 328.076 38.572V46.54H334.076C334.396 46.54 334.668 46.652 334.892 46.876C335.116 47.1 335.228 47.372 335.228 47.692V50.476C335.228 50.796 335.116 51.068 334.892 51.292C334.668 51.516 334.396 51.628 334.076 51.628H328.076V62.044C328.076 63.356 328.3 64.38 328.748 65.116C329.228 65.852 330.044 66.22 331.196 66.22H334.508C334.828 66.22 335.1 66.332 335.324 66.556C335.548 66.78 335.66 67.052 335.66 67.372V70.348C335.66 70.668 335.548 70.94 335.324 71.164C335.1 71.388 334.828 71.5 334.508 71.5H330.62ZM346.734 71.5C346.286 71.5 345.95 71.388 345.726 71.164C345.502 70.94 345.31 70.652 345.15 70.3L338.286 48.028C338.254 47.868 338.238 47.724 338.238 47.596C338.238 47.308 338.334 47.068 338.526 46.876C338.75 46.652 338.99 46.54 339.246 46.54H342.798C343.182 46.54 343.486 46.652 343.71 46.876C343.934 47.068 344.062 47.26 344.094 47.452L348.798 63.34L353.79 47.596C353.854 47.372 353.998 47.148 354.222 46.924C354.446 46.668 354.782 46.54 355.23 46.54H357.63C358.078 46.54 358.414 46.668 358.638 46.924C358.862 47.148 359.006 47.372 359.07 47.596L364.062 63.34L368.766 47.452C368.798 47.26 368.91 47.068 369.102 46.876C369.326 46.652 369.63 46.54 370.014 46.54H373.566C373.854 46.54 374.094 46.652 374.286 46.876C374.51 47.068 374.622 47.308 374.622 47.596C374.622 47.724 374.59 47.868 374.526 48.028L367.662 70.3C367.566 70.652 367.39 70.94 367.134 71.164C366.91 71.388 366.574 71.5 366.126 71.5H363.006C362.558 71.5 362.206 71.388 361.95 71.164C361.694 70.94 361.518 70.652 361.422 70.3L356.43 55.132L351.438 70.3C351.31 70.652 351.118 70.94 350.862 71.164C350.638 71.388 350.286 71.5 349.806 71.5H346.734ZM385.791 71.98C384.127 71.98 382.623 71.66 381.279 71.02C379.935 70.348 378.863 69.468 378.063 68.38C377.295 67.26 376.911 66.012 376.911 64.636C376.911 62.396 377.807 60.62 379.599 59.308C381.423 57.964 383.823 57.068 386.799 56.62L393.375 55.66V54.652C393.375 53.308 393.039 52.268 392.367 51.532C391.695 50.796 390.543 50.428 388.911 50.428C387.759 50.428 386.815 50.668 386.079 51.148C385.375 51.596 384.847 52.204 384.495 52.972C384.239 53.388 383.871 53.596 383.391 53.596H379.599C379.247 53.596 378.975 53.5 378.783 53.308C378.623 53.116 378.543 52.86 378.543 52.54C378.575 52.028 378.783 51.404 379.167 50.668C379.551 49.932 380.159 49.228 380.991 48.556C381.823 47.852 382.895 47.26 384.207 46.78C385.519 46.3 387.103 46.06 388.959 46.06C390.975 46.06 392.671 46.316 394.047 46.828C395.455 47.308 396.575 47.964 397.407 48.796C398.239 49.628 398.847 50.604 399.231 51.724C399.615 52.844 399.807 54.028 399.807 55.276V70.348C399.807 70.668 399.695 70.94 399.471 71.164C399.247 71.388 398.975 71.5 398.655 71.5H394.767C394.415 71.5 394.127 71.388 393.903 71.164C393.711 70.94 393.615 70.668 393.615 70.348V68.476C393.199 69.084 392.639 69.66 391.935 70.204C391.231 70.716 390.367 71.148 389.343 71.5C388.351 71.82 387.167 71.98 385.791 71.98ZM387.423 67.42C388.543 67.42 389.551 67.18 390.447 66.7C391.375 66.22 392.095 65.484 392.607 64.492C393.151 63.468 393.423 62.188 393.423 60.652V59.644L388.623 60.412C386.735 60.7 385.327 61.164 384.399 61.804C383.471 62.444 383.007 63.228 383.007 64.156C383.007 64.86 383.215 65.468 383.631 65.98C384.079 66.46 384.639 66.828 385.311 67.084C385.983 67.308 386.687 67.42 387.423 67.42ZM407.117 71.5C406.797 71.5 406.525 71.388 406.301 71.164C406.077 70.94 405.965 70.668 405.965 70.348V47.74C405.965 47.388 406.077 47.1 406.301 46.876C406.525 46.652 406.797 46.54 407.117 46.54H411.005C411.325 46.54 411.597 46.652 411.821 46.876C412.077 47.1 412.205 47.388 412.205 47.74V49.708C412.941 48.684 413.885 47.9 415.037 47.356C416.221 46.812 417.581 46.54 419.117 46.54H421.085C421.437 46.54 421.709 46.652 421.901 46.876C422.125 47.1 422.237 47.372 422.237 47.692V51.148C422.237 51.468 422.125 51.74 421.901 51.964C421.709 52.188 421.437 52.3 421.085 52.3H417.341C415.805 52.3 414.605 52.732 413.741 53.596C412.909 54.46 412.493 55.644 412.493 57.148V70.348C412.493 70.668 412.381 70.94 412.157 71.164C411.933 71.388 411.645 71.5 411.293 71.5H407.117ZM436.404 71.98C432.852 71.98 430.036 70.956 427.956 68.908C425.876 66.86 424.756 63.948 424.596 60.172C424.564 59.852 424.548 59.452 424.548 58.972C424.548 58.46 424.564 58.06 424.596 57.772C424.724 55.372 425.268 53.292 426.228 51.532C427.22 49.772 428.58 48.428 430.308 47.5C432.036 46.54 434.068 46.06 436.404 46.06C438.996 46.06 441.172 46.604 442.932 47.692C444.692 48.748 446.02 50.236 446.916 52.156C447.812 54.044 448.26 56.236 448.26 58.732V59.74C448.26 60.06 448.148 60.332 447.924 60.556C447.7 60.78 447.412 60.892 447.06 60.892H431.124C431.124 60.892 431.124 60.94 431.124 61.036C431.124 61.132 431.124 61.212 431.124 61.276C431.156 62.396 431.364 63.436 431.748 64.396C432.164 65.324 432.756 66.076 433.524 66.652C434.324 67.228 435.268 67.516 436.356 67.516C437.252 67.516 438.004 67.388 438.612 67.132C439.22 66.844 439.716 66.524 440.1 66.172C440.484 65.82 440.756 65.532 440.916 65.308C441.204 64.924 441.428 64.7 441.588 64.636C441.78 64.54 442.052 64.492 442.404 64.492H446.532C446.852 64.492 447.108 64.588 447.3 64.78C447.524 64.972 447.62 65.212 447.588 65.5C447.556 66.012 447.284 66.636 446.772 67.372C446.292 68.108 445.588 68.828 444.66 69.532C443.732 70.236 442.564 70.828 441.156 71.308C439.78 71.756 438.196 71.98 436.404 71.98ZM431.124 56.86H441.732V56.716C441.732 55.468 441.524 54.38 441.108 53.452C440.692 52.524 440.084 51.788 439.284 51.244C438.484 50.7 437.524 50.428 436.404 50.428C435.284 50.428 434.324 50.7 433.524 51.244C432.724 51.788 432.116 52.524 431.7 53.452C431.316 54.38 431.124 55.468 431.124 56.716V56.86Z" fill="white"/>
</svg>
